<svg width="512" height="512" viewBox="0 0 512 512" fill="none" xmlns="http://www.w3.org/2000/svg">
	<rect width="512" height="512" rx="256" fill="#24262B" />
	<rect width="512" height="512" rx="256" stroke="#898C95" />
	<path d="M248.672 462.641C243.764 462.468 238.901 462.123 234.087 461.611L233.928 463.103C229.009 462.58 224.142 461.884 219.332 461.022L219.597 459.546C214.772 458.681 210.007 457.647 205.306 456.451L204.936 457.904C200.151 456.687 195.433 455.302 190.789 453.757L191.262 452.333C186.618 450.788 182.048 449.081 177.558 447.22L176.984 448.605C172.432 446.718 167.962 444.672 163.581 442.474L164.253 441.134C159.884 438.942 155.604 436.599 151.42 434.112L150.654 435.401C146.424 432.886 142.291 430.224 138.263 427.422L139.12 426.191C135.112 423.403 131.208 420.475 127.415 417.415L126.473 418.582C122.647 415.495 118.934 412.275 115.34 408.927L116.363 407.83C112.793 404.505 109.343 401.054 106.018 397.485L104.92 398.507C101.573 394.914 98.3523 391.2 95.2655 387.375L96.4329 386.433C93.3728 382.64 90.4451 378.736 87.6569 374.728L86.4255 375.584C83.6238 371.556 80.9619 367.424 78.4468 363.194L79.7361 362.428C77.2484 358.244 74.9054 353.964 72.714 349.594L71.3732 350.267C69.176 345.886 67.1301 341.416 65.2424 336.864L66.628 336.289C64.7662 331.8 63.0594 327.229 61.5144 322.586L60.0911 323.059C58.5458 318.414 57.161 313.696 55.9434 308.912L57.397 308.542C56.2008 303.841 55.167 299.075 54.3021 294.251L52.8256 294.516C51.9633 289.706 51.2676 284.839 50.7447 279.92L52.2363 279.761C51.7245 274.947 51.3794 270.083 51.2069 265.175L49.7079 265.228C49.6218 262.779 49.5784 260.318 49.5784 257.848V256.616H51.0784V254.153H49.5784V252.921C49.5784 250.451 49.6218 247.991 49.7079 245.541L51.2069 245.594C51.3794 240.686 51.7245 235.822 52.2363 231.008L50.7447 230.849C51.2676 225.931 51.9633 221.063 52.8256 216.253L54.3021 216.518C55.167 211.694 56.2008 206.928 57.397 202.227L55.9434 201.857C57.161 197.073 58.5458 192.355 60.0911 187.71L61.5144 188.184C63.0594 183.54 64.7662 178.97 66.6279 174.48L65.2424 173.905C67.1301 169.353 69.176 164.883 71.3732 160.502L72.714 161.175C74.9054 156.806 77.2484 152.526 79.7361 148.342L78.4468 147.575C80.9619 143.345 83.6238 139.213 86.4255 135.185L87.6569 136.041C90.4451 132.033 93.3728 128.129 96.4329 124.337L95.2655 123.395C98.3524 119.569 101.573 115.856 104.92 112.262L106.018 113.284C109.343 109.715 112.793 106.264 116.363 102.939L115.34 101.842C118.934 98.4945 122.647 95.2739 126.473 92.1871L127.415 93.3544C131.208 90.2943 135.112 87.3666 139.12 84.5785L138.263 83.3471C142.291 80.5454 146.424 77.8834 150.654 75.3683L151.42 76.6576C155.604 74.1699 159.884 71.8269 164.253 69.6356L163.581 68.2948C167.962 66.0976 172.432 64.0517 176.984 62.1639L177.559 63.5495C182.048 61.6878 186.618 59.981 191.262 58.436L190.789 57.0127C195.433 55.4674 200.151 54.0826 204.936 52.865L205.306 54.3187C210.007 53.1224 214.772 52.0886 219.597 51.2237L219.332 49.7473C224.142 48.8849 229.009 48.1892 233.928 47.6663L234.087 49.1579C238.901 48.6461 243.765 48.3011 248.672 48.1286L248.62 46.6295C251.069 46.5434 253.53 46.5 256 46.5C258.47 46.5 260.931 46.5434 263.38 46.6295L263.328 48.1286C268.235 48.3011 273.099 48.6461 277.913 49.1579L278.072 47.6663C282.991 48.1892 287.858 48.8849 292.668 49.7473L292.403 51.2237C297.228 52.0886 301.993 53.1224 306.694 54.3187L307.064 52.865C311.849 54.0826 316.567 55.4674 321.211 57.0127L320.738 58.436C325.382 59.9811 329.952 61.6878 334.441 63.5496L335.016 62.164C339.568 64.0517 344.038 66.0976 348.419 68.2948L347.747 69.6356C352.116 71.827 356.396 74.17 360.58 76.6577L361.346 75.3684C365.576 77.8835 369.709 80.5454 373.737 83.3471L372.88 84.5785C376.888 87.3667 380.792 90.2944 384.585 93.3545L385.527 92.1871C389.353 95.274 393.066 98.4946 396.66 101.842L395.637 102.939C399.207 106.264 402.657 109.715 405.982 113.284L407.08 112.262C410.427 115.856 413.648 119.569 416.734 123.395L415.567 124.337C418.627 128.129 421.555 132.033 424.343 136.042L425.574 135.185C428.376 139.213 431.038 143.345 433.553 147.575L432.264 148.342C434.752 152.526 437.095 156.806 439.286 161.175L440.627 160.502C442.824 164.883 444.87 169.353 446.758 173.905L445.372 174.48C447.234 178.97 448.941 183.54 450.486 188.184L451.909 187.71C453.454 192.355 454.839 197.073 456.057 201.858L454.603 202.227C455.799 206.928 456.833 211.694 457.698 216.518L459.174 216.253C460.037 221.063 460.732 225.931 461.255 230.85L459.764 231.008C460.275 235.822 460.621 240.686 460.793 245.594L462.292 245.541C462.378 247.991 462.422 250.451 462.422 252.922V254.153H460.922V256.616H462.422V257.848C462.422 260.318 462.378 262.779 462.292 265.228L460.793 265.176C460.621 270.083 460.275 274.947 459.764 279.761L461.255 279.92C460.732 284.839 460.037 289.706 459.174 294.516L457.698 294.251C456.833 299.075 455.799 303.841 454.603 308.542L456.057 308.912C454.839 313.697 453.454 318.415 451.909 323.059L450.486 322.586C448.941 327.23 447.234 331.8 445.372 336.289L446.758 336.864C444.87 341.416 442.824 345.886 440.627 350.267L439.286 349.594C437.095 353.964 434.752 358.244 432.264 362.428L433.553 363.194C431.038 367.424 428.376 371.557 425.574 375.584L424.343 374.728C421.555 378.736 418.627 382.64 415.567 386.433L416.734 387.375C413.648 391.2 410.427 394.914 407.08 398.507L405.982 397.485C402.657 401.054 399.207 404.505 395.637 407.83L396.66 408.927C393.066 412.275 389.353 415.495 385.527 418.582L384.585 417.415C380.792 420.475 376.888 423.403 372.88 426.191L373.737 427.422C369.709 430.224 365.576 432.886 361.346 435.401L360.58 434.112C356.396 436.599 352.116 438.942 347.747 441.134L348.419 442.474C344.038 444.672 339.568 446.718 335.016 448.605L334.441 447.22C329.952 449.081 325.382 450.788 320.738 452.333L321.211 453.757C316.567 455.302 311.849 456.687 307.064 457.904L306.694 456.451C301.993 457.647 297.228 458.681 292.403 459.546L292.668 461.022C287.858 461.884 282.991 462.58 278.072 463.103L277.913 461.611C273.099 462.123 268.235 462.468 263.328 462.641L263.38 464.14C260.931 464.226 258.47 464.269 256 464.269C253.53 464.269 251.069 464.226 248.62 464.14L248.672 462.641Z" fill="#2C2F35" stroke="#4B4C53" stroke-width="3" stroke-dasharray="15 15" />
	<g filter="url(#filter0_f_8_98)">
		<ellipse cx="255.722" cy="257.462" rx="144.722" ry="146.462" fill="#000C16" fill-opacity="0.23" />
	</g>
	<ellipse cx="255.722" cy="256.462" rx="144.722" ry="146.462" fill="white" fill-opacity="0.5" />
	<g filter="url(#filter1_d_8_98)">
		<ellipse cx="256" cy="255.385" rx="103.981" ry="107.692" fill="white" />
	</g>
	<defs>
		<filter id="filter0_f_8_98" x="21" y="21" width="469.444" height="472.923" filterUnits="userSpaceOnUse" color-interpolation-filters="sRGB">
			<feFlood flood-opacity="0" result="BackgroundImageFix" />
			<feBlend mode="normal" in="SourceGraphic" in2="BackgroundImageFix" result="shape" />
			<feGaussianBlur stdDeviation="45" result="effect1_foregroundBlur_8_98" />
		</filter>
		<filter id="filter1_d_8_98" x="102.019" y="97.6923" width="307.962" height="315.385" filterUnits="userSpaceOnUse" color-interpolation-filters="sRGB">
			<feFlood flood-opacity="0" result="BackgroundImageFix" />
			<feColorMatrix in="SourceAlpha" type="matrix" values="0 0 0 0 0 0 0 0 0 0 0 0 0 0 0 0 0 0 127 0" result="hardAlpha" />
			<feOffset />
			<feGaussianBlur stdDeviation="25" />
			<feComposite in2="hardAlpha" operator="out" />
			<feColorMatrix type="matrix" values="0 0 0 0 0 0 0 0 0 0 0 0 0 0 0 0 0 0 0.2 0" />
			<feBlend mode="normal" in2="BackgroundImageFix" result="effect1_dropShadow_8_98" />
			<feBlend mode="normal" in="SourceGraphic" in2="effect1_dropShadow_8_98" result="shape" />
		</filter>
	</defs>
</svg>
